<svg width="40" height="40" viewBox="0 0 40 40" fill="none" xmlns="http://www.w3.org/2000/svg">
<g clip-path="url(#clip0_2_10)">
<path d="M15.8633 36.6667C15.0467 34.0037 13.8148 32.0185 12.1676 30.711C9.69665 28.7497 5.77067 29.9687 4.32047 27.9457C2.87026 25.9227 5.3365 22.2026 6.20193 20.0075C7.06737 17.8125 2.88481 17.0363 3.37312 16.4132C3.69867 15.9977 5.81224 14.7989 9.7139 12.8167C10.8225 6.49454 14.9173 3.33344 21.9985 3.33344C32.6201 3.33344 36.6666 12.3384 36.6666 18.0658C36.6666 23.7933 31.7667 29.9636 24.7867 31.294C24.1626 32.203 25.0628 33.9939 27.4873 36.6667" stroke="black" stroke-width="4.66685" stroke-linecap="round" stroke-linejoin="round"/>
<path fill-rule="evenodd" clip-rule="evenodd" d="M16.2497 12.0833C15.7053 14.1952 15.8673 15.6782 16.7357 16.5321C17.6041 17.3861 19.0842 17.9445 21.176 18.2074C20.7014 20.9313 21.2801 22.2092 22.9118 22.0411C24.5436 21.8729 25.5241 21.1948 25.8532 20.0069C28.4035 20.7237 29.7856 20.1238 29.9997 18.2074C30.321 15.3327 28.7708 13.0396 28.1353 13.0396C27.4997 13.0396 25.8532 12.9622 25.8532 12.0833C25.8532 11.2043 23.9299 10.7077 22.1941 10.7077C20.4582 10.7077 21.5029 9.53766 19.1193 9.99999C17.5302 10.3082 16.5737 11.0026 16.2497 12.0833Z" fill="#2F88FF" stroke="black" stroke-width="4" stroke-linejoin="round"/>
<path d="M25.4169 21.2501C24.5694 21.7759 23.4065 22.6503 22.9169 23.3334C21.6928 25.0413 20.6999 26.0813 20.4826 27.1735" stroke="black" stroke-width="4" stroke-linecap="round"/>
<path d="M40 0H0V40H40V0Z" fill="white" fill-opacity="0.01"/>
</g>
<defs>
<clipPath id="clip0_2_10">
<rect width="40" height="40" fill="white"/>
</clipPath>
</defs>
</svg>
