<svg width="370" height="292" viewBox="0 0 370 292" fill="none" xmlns="http://www.w3.org/2000/svg">
<path d="M189.863 225.026C189.863 219.001 185.002 214.117 179.007 214.117C173.012 214.117 168.152 219.001 168.152 225.026H147.114V289.13H210.901V225.026H189.863Z" fill="#AABBFF"/>
<path d="M182.86 142.039C183.011 136.016 178.274 131.011 172.281 130.859C166.288 130.708 161.308 135.468 161.157 141.491L140.125 140.96L138.523 205.043L161.377 205.619C161.39 199.397 166.413 194.357 172.608 194.357C178.811 194.357 183.84 199.411 183.84 205.645C183.84 205.827 183.821 206.005 183.812 206.186L202.29 206.652L203.892 142.569L182.86 142.039Z" fill="#FFB127"/>
<path d="M320.755 98.4923C347.776 98.4923 369.681 76.4793 369.681 49.3249C369.681 22.1705 347.776 0.157486 320.755 0.157486C293.735 0.157486 271.83 22.1705 271.83 49.3249C271.83 76.4793 293.735 98.4923 320.755 98.4923Z" fill="#FFB127"/>
<path d="M224.045 73.3536C224.045 73.3536 212.197 68.778 212.059 69.7556C211.922 70.7341 215.732 72.6594 215.732 72.6594C215.732 72.6594 210.067 73.3861 206.935 73.5729C205.749 73.6435 204.732 74.5692 204.504 75.7709L203.909 78.8923C203.909 78.8923 209.658 79.5175 212.795 79.6279C215.933 79.7384 225.335 79.5354 225.335 79.5354L224.045 73.3536Z" fill="#D8948F"/>
<path d="M204.591 75.4729L211.819 75.1741" stroke="#1D1D3C" stroke-width="0.5" stroke-miterlimit="10" stroke-linecap="round" stroke-linejoin="round"/>
<path d="M204.238 77.4664L211.466 77.1676" stroke="#1D1D3C" stroke-width="0.5" stroke-miterlimit="10" stroke-linecap="round" stroke-linejoin="round"/>
<path d="M330.386 111.882C330.386 111.882 322.441 121.831 323.326 122.26C324.211 122.69 327.196 119.628 327.196 119.628C327.196 119.628 326.159 125.273 325.383 128.327C325.089 129.483 325.657 130.738 326.726 131.324L329.503 132.844C329.503 132.844 331.846 127.531 332.906 124.562C333.967 121.592 336.637 112.531 336.637 112.531L330.386 111.882Z" fill="#D8948F"/>
<path d="M326.47 131.149L328.388 124.139" stroke="#1D1D3C" stroke-width="0.5" stroke-miterlimit="10" stroke-linecap="round" stroke-linejoin="round"/>
<path d="M328.253 132.095L330.17 125.085" stroke="#1D1D3C" stroke-width="0.5" stroke-miterlimit="10" stroke-linecap="round" stroke-linejoin="round"/>
<path d="M292.405 51.1901C294.513 49.1292 294.561 45.7107 292.51 43.5914L284.971 35.8019C282.922 33.6834 279.519 33.6354 277.411 35.6963C275.303 37.7572 275.255 41.1757 277.306 43.2942L284.845 51.0837C286.894 53.203 290.297 53.2509 292.405 51.1901Z" fill="#D8948F"/>
<path d="M277.085 36.0154L277.737 35.3772C279.666 33.4925 282.779 33.5356 284.655 35.4738L287.328 38.2354C286.907 42.6876 284.677 47.2161 282.673 48.8401L276.989 42.9661C275.113 41.0279 275.156 37.9001 277.085 36.0154Z" fill="#C67775"/>
<path d="M263.189 40.8825C262.32 39.9804 261.642 38.9654 261.136 37.8903C261.11 37.8473 261.093 37.8156 261.085 37.8002C261.085 37.8002 261.091 37.7929 261.093 37.7921C259.174 33.6111 259.957 28.4987 263.429 25.1062C267.51 21.1176 273.854 20.9187 278.169 24.4347C278.174 24.4371 278.179 24.4379 278.184 24.4404C280.302 25.6787 282.877 30.7983 284.197 33.672C284.795 34.9761 285.021 36.4157 284.849 37.8416C284.264 42.6763 281.184 52.5818 275.69 51.5522C270.743 50.6249 266.189 44.9791 263.189 40.8825Z" fill="#D8948F"/>
<path d="M271.677 44.7493C271.677 44.7493 273.388 44.742 273.901 42.5764" stroke="#501D38" stroke-width="0.5" stroke-miterlimit="10" stroke-linecap="round" stroke-linejoin="round"/>
<path d="M276.307 32.8543C276.348 32.8137 276.378 32.7601 276.39 32.6992C276.418 32.5425 276.315 32.3923 276.159 32.3638C273.413 31.8637 272.153 34.9785 272.141 35.0102C272.083 35.1579 272.155 35.3252 272.302 35.3845C272.449 35.443 272.616 35.3715 272.674 35.2229C272.718 35.1125 273.775 32.5165 276.056 32.9314C276.151 32.9493 276.243 32.9176 276.307 32.8543Z" fill="#501D38"/>
<path d="M264.546 42.686C264.426 42.5309 264.308 42.3782 264.192 42.2256C265.002 41.3308 266.084 40.9191 266.102 40.9118C266.251 40.8574 266.417 40.9345 266.47 41.0847C266.524 41.2341 266.447 41.399 266.299 41.4542C266.282 41.4599 265.252 41.8488 264.546 42.686Z" fill="#501D38"/>
<path d="M273.732 40.3986C273.732 40.3986 277.448 39.5216 277.894 34.2834C277.894 34.2834 272.431 36.3418 273.732 40.3986Z" fill="white"/>
<path d="M273.647 40.6341C273.707 40.5748 273.741 40.4895 273.732 40.3986C273.714 40.2183 273.35 35.9699 278.027 34.8445C278.182 34.8072 278.276 34.6521 278.24 34.497C278.203 34.3419 278.048 34.2469 277.894 34.2834C272.722 35.5282 273.155 40.4075 273.161 40.4571C273.177 40.6154 273.318 40.7307 273.475 40.7145C273.542 40.708 273.601 40.6779 273.647 40.6341Z" fill="#501D38"/>
<path d="M286.33 28.027C284.675 26.3161 281.953 26.2779 280.25 27.9417C278.548 29.6055 278.51 32.3411 280.165 34.0512C281.821 35.7621 284.543 35.8002 286.245 34.1364C287.947 32.4735 287.985 29.7378 286.33 28.027Z" fill="#D8948F"/>
<path d="M282.129 32.7106C282.129 32.7106 280.674 29.2206 283.873 27.1849" stroke="#501D38" stroke-width="0.5" stroke-miterlimit="10" stroke-linecap="round" stroke-linejoin="round"/>
<path d="M275.111 39.7214C274.783 39.6491 274.466 39.5038 274.196 39.2642C273.919 39.0182 273.733 38.7121 273.621 38.384C273.88 37.244 274.67 36.3402 275.502 35.6744C275.999 35.663 276.501 35.8262 276.903 36.1819C277.094 36.3516 277.241 36.5513 277.353 36.7657C276.775 38.2914 275.873 39.1944 275.111 39.7214Z" fill="#1D1D3C"/>
<path d="M268.155 43.5337C268.744 43.4192 269.417 43.3949 270.183 43.4972C269.821 44.1062 269.438 44.6218 269.045 45.04C269.023 44.7988 268.964 44.5577 268.853 44.327C268.689 43.9909 268.443 43.727 268.155 43.5337Z" fill="white"/>
<path d="M267.553 46.2328C267.578 46.2182 267.603 46.2044 267.627 46.1898C267.709 46.1402 267.791 46.0899 267.873 46.0347C267.948 45.9851 268.022 45.9332 268.096 45.878C268.184 45.8138 268.272 45.744 268.36 45.6725C268.43 45.6149 268.501 45.5588 268.571 45.4963C268.677 45.4029 268.782 45.2998 268.887 45.1951C268.939 45.1423 268.992 45.096 269.045 45.04C269.023 44.7988 268.964 44.5577 268.853 44.327C268.689 43.9909 268.444 43.7278 268.155 43.5337C268.744 43.4192 269.417 43.3949 270.183 43.4972C270.256 43.5069 270.328 43.5142 270.402 43.5264C270.559 43.5516 270.706 43.4444 270.731 43.2877C270.756 43.1302 270.65 42.9824 270.493 42.9572C268.259 42.5967 266.711 43.2365 265.668 44.0932C265.713 44.1468 265.758 44.2004 265.802 44.254C265.802 44.254 265.802 44.254 265.804 44.2564C265.877 44.3441 265.953 44.4318 266.026 44.5195C266.515 45.0984 267.025 45.6725 267.553 46.2328Z" fill="#1D1D3C"/>
<path d="M275.214 48.517C276.134 48.6501 277.07 48.4325 277.879 47.9859C279.381 47.1561 280.355 45.4906 280.483 43.7903C280.548 42.9182 280.426 41.9008 279.901 41.1757C279.364 40.4335 278.368 40.1834 277.918 41.1424C277.48 42.0762 277.569 43.1594 277.123 44.0956C276.96 44.4359 276.736 44.7558 276.465 45.0294C276.247 45.1764 276.008 45.3014 275.743 45.3932C275.027 45.64 273.131 45.7627 273.184 46.8686C273.23 47.8471 274.379 48.396 275.214 48.517Z" fill="#501D38"/>
<path d="M277.538 45.1407C278.287 44.2881 279.395 43.9592 280.432 44.1582C280.202 45.7269 279.272 47.217 277.879 47.9859C277.6 48.1394 277.304 48.2547 277.001 48.3489C276.579 47.2949 276.739 46.0501 277.538 45.1407Z" fill="#FF8DCC"/>
<path d="M282.673 48.8401L255.834 69.6184C255.834 69.6184 242.029 73.1985 223.726 72.1177L221.718 81.8487C221.718 81.8487 242.363 92.8416 262.616 84.0111C282.87 75.1806 293.988 60.7627 293.988 60.7627L282.673 48.8401Z" fill="#AABBFF"/>
<path d="M333.661 73.0727C326.321 60.9657 305.619 41.7896 300.854 41.7896C294.233 41.7896 288.865 47.1837 288.865 53.838C288.865 59.3003 318.789 82.7696 318.789 82.7696C318.789 82.7696 325.831 95.0511 327.281 113.42L337.148 114.081C337.148 114.081 345.147 92.0199 333.661 73.0727Z" fill="#AABBFF"/>
<path d="M368.408 61.7339C369.394 57.842 369.921 53.7657 369.921 49.5661C369.921 40.4497 367.442 31.9197 363.141 24.6003C353.374 24.9868 307.748 26.809 300.096 27.4253C291.518 28.1163 286.851 37.736 286.851 37.736C289.036 46.059 282.913 49.0805 282.913 49.0805C288.232 61.1549 327.025 73.5477 327.025 73.5477L368.408 61.7339Z" fill="#AABBFF"/>
<path d="M282.913 49.0813L294.229 61.0047" stroke="white" stroke-width="0.5" stroke-miterlimit="10" stroke-linecap="round" stroke-linejoin="round"/>
<path d="M332.971 71.8514C332.971 71.8514 309.857 41.2869 301.889 40.9572C293.92 40.6276 288.61 47.2559 289.47 55.9914" stroke="white" stroke-width="0.5" stroke-miterlimit="10" stroke-linecap="round" stroke-linejoin="round"/>
<path d="M335.787 76.8062C335.225 75.6345 334.6 74.4685 333.901 73.3146C331.511 69.3732 327.703 64.6847 323.493 60.1505C321.033 62.0481 319.441 65.0241 319.441 68.3809C319.441 74.1136 324.065 78.7607 329.769 78.7607C332.017 78.7607 334.091 78.0315 335.787 76.8062Z" fill="#1D1D3C"/>
<path d="M270.145 80.2694C268.429 76.928 264.968 74.639 260.968 74.639C255.264 74.639 250.64 79.2861 250.64 85.0196C250.64 85.7464 250.715 86.4552 250.857 87.1389C254.688 86.6972 258.66 85.7366 262.618 84.0103C265.289 82.8467 267.796 81.5832 270.145 80.2694Z" fill="#1D1D3C"/>
<path d="M268.843 24.8252C268.843 24.8252 275.137 31.6948 279.537 30.7431C279.537 30.7431 279.464 28.7082 280.829 27.3912C279.947 26.0505 279.03 24.9349 278.185 24.4404C278.18 24.4379 278.175 24.4371 278.17 24.4347C273.854 20.9179 267.511 21.1168 263.429 25.1062C259.958 28.4987 259.175 33.6111 261.093 37.7921L261.085 37.8002C261.093 37.8156 261.111 37.8473 261.137 37.8903C261.643 38.9662 262.322 39.9804 263.189 40.8825C263.189 40.8825 272.261 35.7759 268.843 24.8252Z" fill="#1D1D3C"/>
<path d="M305.483 134.072C344.697 158.99 356.871 211.017 332.584 250.934C308.296 290.85 256.666 303.67 216.724 279.948L305.483 134.072Z" fill="#0048FD"/>
<path d="M297.595 204.329H255.425C255.833 204.047 256.252 203.776 256.687 203.523C255.391 203.223 254.221 202.545 253.187 201.843C251.736 200.856 250.248 199.728 249.447 198.303C248.672 196.925 248.726 195.411 249.696 194.105C250.698 192.755 252.36 191.761 254.002 190.976C255.437 190.291 256.984 189.772 258.585 189.413C256.664 188.295 255.678 186.09 255.753 184.205C255.803 182.94 256.302 181.704 257.31 180.732C258.337 179.74 259.855 179.16 261.399 178.93C262.805 178.721 264.23 178.741 265.646 178.845C265.136 177.636 265.894 176.152 267.035 175.257C268.56 174.061 270.707 173.459 272.807 173.5C274.947 173.541 277.014 174.238 278.492 175.514C279.26 176.177 279.852 176.949 280.29 177.778C282.173 178.995 283.373 180.884 283.47 182.84C286.041 182.045 289.386 183.395 290.96 185.079C293.105 187.375 291.688 190.049 289.932 192.191C292.735 192.336 295.235 194.089 296.085 196.298C297.027 198.748 295.892 201.378 293.931 203.31C295.208 203.399 296.5 203.762 297.595 204.329Z" fill="#501D38"/>
<path d="M276.104 215.682C279.084 215.54 281.407 212.972 281.265 209.978L280.744 198.964C280.603 195.969 278.048 193.635 275.068 193.777C272.087 193.92 269.765 196.487 269.906 199.482L270.427 210.495C270.569 213.49 273.124 215.824 276.104 215.682Z" fill="#D8948F"/>
<path d="M274.606 193.799L275.529 193.755C278.255 193.625 280.593 195.761 280.722 198.501L280.906 202.406C277.61 205.506 272.885 207.442 270.276 207.323L269.884 199.019C269.755 196.278 271.88 193.929 274.606 193.799Z" fill="#C67775"/>
<path d="M260.789 188.114C260.732 186.841 260.895 185.612 261.23 184.452C261.239 184.402 261.247 184.365 261.251 184.348C261.251 184.348 261.261 184.348 261.262 184.348C262.6 179.873 266.614 176.517 271.521 176.282C277.291 176.007 282.247 180.14 283.175 185.727C283.177 185.732 283.182 185.737 283.183 185.742C283.965 188.114 282.499 193.745 281.579 196.82C281.162 198.216 280.371 199.462 279.286 200.429C275.609 203.71 266.643 209.159 263.155 204.665C260.016 200.622 260.33 193.255 260.789 188.114Z" fill="#D8948F"/>
<path d="M264.655 196.787C264.655 196.787 265.961 197.936 267.798 196.636" stroke="#501D38" stroke-width="0.5" stroke-miterlimit="10" stroke-linecap="round" stroke-linejoin="round"/>
<path d="M276.129 190.871C276.188 190.868 276.247 190.848 276.296 190.809C276.422 190.709 276.444 190.524 276.344 190.398C274.592 188.163 271.551 189.68 271.521 189.696C271.378 189.769 271.321 189.945 271.394 190.089C271.466 190.233 271.641 190.291 271.785 190.217C271.892 190.163 274.431 188.904 275.887 190.76C275.947 190.837 276.038 190.876 276.129 190.871Z" fill="#501D38"/>
<path d="M260.614 190.401C260.626 190.202 260.639 190.006 260.653 189.811C261.867 189.678 262.966 190.096 262.984 190.103C263.134 190.162 263.207 190.333 263.148 190.482C263.089 190.632 262.921 190.706 262.771 190.647C262.754 190.642 261.712 190.242 260.614 190.401Z" fill="#501D38"/>
<path d="M268.904 194.988C268.989 194.984 269.072 194.942 269.127 194.867C269.233 194.718 271.798 191.242 276.106 193.547C276.248 193.622 276.424 193.569 276.5 193.426C276.575 193.283 276.521 193.106 276.379 193.03C271.616 190.483 268.681 194.485 268.653 194.526C268.559 194.657 268.589 194.84 268.72 194.934C268.776 194.974 268.84 194.991 268.904 194.988Z" fill="#501D38"/>
<path d="M260.516 192.692C261.757 192.648 263.212 193.02 264.722 194.309C264.845 194.414 264.859 194.598 264.755 194.722C264.651 194.845 264.468 194.86 264.345 194.756C262.952 193.566 261.626 193.222 260.505 193.262C260.507 193.07 260.512 192.882 260.516 192.692Z" fill="#501D38"/>
<path d="M286.977 193.971C286.862 191.553 284.819 189.686 282.412 189.8C280.006 189.915 278.148 191.969 278.262 194.387C278.377 196.805 280.42 198.673 282.826 198.558C285.232 198.444 287.091 196.389 286.977 193.971Z" fill="#D8948F"/>
<path d="M280.651 194.694C280.651 194.694 281.878 191.059 285.673 191.672" stroke="#501D38" stroke-width="0.5" stroke-miterlimit="10" stroke-linecap="round" stroke-linejoin="round"/>
<path d="M265.698 200.894C265.698 200.894 269.922 202.172 271.748 198.16" stroke="#501D38" stroke-width="0.5" stroke-miterlimit="10" stroke-linecap="round" stroke-linejoin="round"/>
<path d="M260.789 188.114C260.732 186.841 260.895 185.612 261.23 184.452C261.239 184.402 261.247 184.365 261.251 184.348C261.251 184.348 261.261 184.348 261.262 184.348C262.6 179.873 266.614 176.517 271.521 176.282C277.291 176.007 282.247 180.14 283.175 185.728C283.177 185.733 283.182 185.738 283.183 185.743C283.535 186.809 284.045 190.186 283.989 190.037C282.804 190.649 281.112 192.208 280.744 193.422C280.674 193.654 280.36 193.763 280.184 193.57C278.569 191.802 278.219 189.125 279.259 186.999C277.952 187.175 276.608 186.163 275.895 185.102C275.321 184.245 274.994 183.253 274.812 182.231C274.714 182.421 274.599 182.607 274.454 182.787C273.909 183.458 273.125 183.929 272.262 184.024C271.26 184.134 270.305 183.641 269.691 182.879C269.643 183.274 269.549 183.661 269.379 184.029C269.025 184.797 268.351 185.453 267.494 185.579C266.647 185.702 265.803 185.267 265.291 184.601C265.264 184.565 265.242 184.527 265.217 184.49C265.101 185.564 264.771 186.568 263.848 187.148C263.227 187.539 262.433 187.575 261.853 187.092C261.784 187.035 261.721 186.974 261.664 186.908C261.473 187.581 261.185 188.226 260.741 188.685C260.757 188.494 260.773 188.3 260.789 188.114Z" fill="#501D38"/>
<path d="M286.313 198.005C286.313 196.606 285.184 195.472 283.792 195.472C282.4 195.472 281.271 196.606 281.271 198.005C281.271 199.404 282.4 200.539 283.792 200.539C285.185 200.539 286.313 199.404 286.313 198.005Z" fill="white"/>
<path d="M202.626 258.132C202.854 256.93 203.872 256.004 205.057 255.933C208.188 255.747 213.855 255.02 213.855 255.02C213.855 255.02 210.044 253.095 210.181 252.116C210.29 251.337 217.834 254.083 220.895 255.231C224.743 255.541 250.967 256.937 260.9 238.441L278.186 252.298C278.186 252.298 271.368 280.468 220.087 261.958C217.068 262.006 212.831 262.055 210.918 261.988C207.781 261.877 202.032 261.252 202.032 261.252L202.626 258.132Z" fill="#D8948F"/>
<path d="M202.713 257.834L209.941 257.535" stroke="#1D1D3C" stroke-width="0.5" stroke-miterlimit="10" stroke-linecap="round" stroke-linejoin="round"/>
<path d="M202.36 259.827L209.588 259.528" stroke="#1D1D3C" stroke-width="0.5" stroke-miterlimit="10" stroke-linecap="round" stroke-linejoin="round"/>
<path d="M255.264 243.562L270.213 208.802C270.213 208.802 277.09 209.802 281.234 204.881C304.886 209.079 316.839 246.627 321.401 265.53C306.716 280.941 287.054 289.964 266.585 291.579V267.461L255.264 243.562Z" fill="#FFB127"/>
<path d="M266.586 267.461C266.586 267.461 286.463 256.622 283.269 231.457" stroke="white" stroke-width="0.5" stroke-miterlimit="10" stroke-linecap="round" stroke-linejoin="round"/>
<path d="M137.755 257.834L107.391 205.224L0.0795288 218.529V269.813L137.755 257.834Z" fill="#AABBFF"/>
<path d="M88.7058 111C88.4925 112.326 88.2792 113.653 88.0651 114.98C87.8469 116.338 88.7955 117.526 87.2635 119.038H35.92C36.2012 117.954 36.5551 116.891 36.9833 115.855C37.9279 113.574 39.3483 111.332 41.8935 110.717C43.251 110.389 44.6197 110.527 45.9957 110.594C47.2885 110.658 48.4707 110.509 49.1098 109.248C49.6899 108.103 49.9008 106.751 50.1893 105.512C50.4648 104.327 50.7767 103.137 51.3399 102.052C53.5974 97.7022 58.9391 98.0092 62.7504 95.9646C63.0664 95.7948 63.3637 95.6032 63.6522 95.4002C64.1895 94.7904 64.6638 94.1132 65.1219 93.4701C66.2273 91.92 67.2502 90.3138 68.4153 88.8068C70.2915 86.3797 72.7001 84.1313 75.6954 83.3112C76.2982 83.0627 76.9397 82.8881 77.6096 82.7972C79.733 82.5081 81.8572 83.1382 83.6768 84.2303C85.6233 85.3988 87.3274 87.0886 88.4529 89.0707C89.5841 91.0625 90.1449 93.3012 90.3493 95.5724C90.5804 98.1488 90.3032 100.737 89.9348 103.286C89.5615 105.862 89.1195 108.43 88.7058 111Z" fill="#501D38"/>
<path d="M74.2741 123.514C71.1997 123.367 68.8032 120.719 68.9494 117.629L69.4867 106.268C69.633 103.179 72.2679 100.77 75.3431 100.917C78.4176 101.064 80.8141 103.712 80.6678 106.802L80.1305 118.163C79.9835 121.254 77.3486 123.661 74.2741 123.514Z" fill="#D8948F"/>
<path d="M75.8182 100.94L74.8664 100.894C72.0537 100.76 69.6427 102.963 69.5094 105.79L69.3187 109.818C72.7195 113.017 77.5934 115.013 80.2848 114.891L80.6896 106.324C80.8238 103.497 78.6317 101.074 75.8182 100.94Z" fill="#C67775"/>
<path d="M90.073 95.0746C90.1319 93.7616 89.9631 92.4941 89.6181 91.298C89.6084 91.246 89.6011 91.2087 89.5962 91.1908C89.5962 91.1908 89.5865 91.19 89.5849 91.19C88.2049 86.5746 84.0639 83.1114 79.0009 82.8694C73.0484 82.5852 67.9362 86.849 66.9787 92.6134C66.9771 92.6183 66.9722 92.6232 66.9706 92.6289C66.1642 95.0754 67.6768 100.884 68.6254 104.057C69.0561 105.497 69.8721 106.783 70.9912 107.781C74.7848 111.165 84.0348 116.787 87.632 112.152C90.8704 107.978 90.5464 100.379 90.073 95.0746Z" fill="#D8948F"/>
<path d="M86.0847 104.022C86.0847 104.022 84.7377 105.208 82.8422 103.867" stroke="#501D38" stroke-width="0.5" stroke-miterlimit="10" stroke-linecap="round" stroke-linejoin="round"/>
<path d="M74.2475 97.9198C74.1869 97.9166 74.1271 97.8955 74.0762 97.8549C73.9461 97.7518 73.9235 97.5618 74.0261 97.431C75.8344 95.1258 78.971 96.6905 79.0017 96.7075C79.1496 96.783 79.2086 96.9641 79.1334 97.1135C79.0583 97.2621 78.8781 97.3222 78.7294 97.2459C78.6187 97.1899 75.9992 95.8907 74.4971 97.8054C74.4357 97.8841 74.342 97.9239 74.2475 97.9198Z" fill="#501D38"/>
<path d="M90.2531 97.4343C90.2402 97.2296 90.2273 97.0275 90.2127 96.8269C88.9603 96.6897 87.8275 97.1208 87.8081 97.1282C87.6538 97.1891 87.5778 97.3653 87.6384 97.5195C87.699 97.6746 87.8728 97.7501 88.0279 97.6901C88.0457 97.6827 89.1219 97.2702 90.2531 97.4343Z" fill="#501D38"/>
<path d="M81.7013 102.167C81.6132 102.163 81.5275 102.12 81.471 102.042C81.3611 101.887 78.7149 98.3023 74.2709 100.679C74.1246 100.757 73.9428 100.702 73.8645 100.554C73.7869 100.407 73.8427 100.224 73.9889 100.146C78.9032 97.5179 81.9299 101.646 81.9598 101.688C82.056 101.824 82.0261 102.012 81.8911 102.109C81.8338 102.152 81.7667 102.17 81.7013 102.167Z" fill="#501D38"/>
<path d="M90.355 99.798C89.0751 99.7517 87.573 100.136 86.016 101.465C85.8891 101.573 85.8738 101.764 85.9812 101.891C86.0887 102.018 86.2786 102.033 86.4046 101.925C87.8413 100.699 89.2092 100.343 90.3655 100.384C90.3638 100.188 90.359 99.9929 90.355 99.798Z" fill="#501D38"/>
<path d="M63.0575 101.118C63.1754 98.6222 65.2835 96.6962 67.7665 96.8147C70.2495 96.9333 72.1661 99.0518 72.0481 101.547C71.9301 104.042 69.822 105.968 67.3391 105.85C64.8561 105.731 62.9395 103.613 63.0575 101.118Z" fill="#D8948F"/>
<path d="M69.5829 101.863C69.5829 101.863 68.3167 98.1123 64.4028 98.7448" stroke="#501D38" stroke-width="0.5" stroke-miterlimit="10" stroke-linecap="round" stroke-linejoin="round"/>
<path d="M85.0084 108.259C85.0084 108.259 80.6509 109.577 78.7666 105.438" stroke="#501D38" stroke-width="0.5" stroke-miterlimit="10" stroke-linecap="round" stroke-linejoin="round"/>
<path d="M66.9706 92.6289C66.9722 92.6232 66.9771 92.6191 66.9787 92.6134C67.9362 86.8491 73.0492 82.5844 79.0009 82.8694C84.0639 83.1114 88.2049 86.5746 89.5849 91.19C89.5865 91.19 89.5962 91.1908 89.5962 91.1908C89.6011 91.2087 89.6084 91.246 89.6181 91.2972C89.9631 92.4933 90.1433 92.7296 90.0843 94.0426C90.0843 94.0426 87.6174 92.7905 82.3428 87.8194C82.0018 87.4986 80.6735 83.614 80.6735 83.614L82.1045 87.687C82.1045 87.687 81.4872 98.0457 66.7428 96.809L66.8785 96.3803C66.6927 94.8757 66.6749 93.5261 66.9706 92.6289Z" fill="#501D38"/>
<path d="M68.0299 105.234C68.0299 103.217 66.4026 101.582 64.3955 101.582C62.3885 101.582 60.7611 103.217 60.7611 105.234C60.7611 107.251 62.3885 108.887 64.3955 108.887C66.4026 108.886 68.0299 107.251 68.0299 105.234Z" stroke="#FFB127" stroke-width="0.5" stroke-miterlimit="10" stroke-linecap="round" stroke-linejoin="round"/>
<path d="M51.0094 203.763C51.0094 203.763 43.4813 200.418 40.0384 206.577C40.0384 206.577 15.0324 212.241 14.6163 214.18C14.2001 216.119 15.5244 216.994 15.5244 216.994H50.4793L51.0094 203.763Z" fill="#D8948F"/>
<path d="M30.9742 175.426L116.066 179.345C116.066 179.345 129.369 181.304 129.369 198.706C129.369 216.108 104.828 218.529 104.828 218.529L47.0292 217.607L47.9463 193.635C47.9463 193.635 28.795 194.903 30.9742 175.426Z" fill="#1D1D3C"/>
<path d="M47.9471 193.635L111.537 196.977" stroke="white" stroke-width="0.5" stroke-miterlimit="10" stroke-linecap="round" stroke-linejoin="round"/>
<path d="M128.332 161.803C128.332 161.803 140.18 157.228 140.318 158.205C140.455 159.184 136.644 161.109 136.644 161.109C136.644 161.109 142.31 161.836 145.442 162.022C146.627 162.093 147.645 163.019 147.873 164.22L148.468 167.342C148.468 167.342 142.719 167.967 139.582 168.077C136.444 168.188 127.042 167.985 127.042 167.985L128.332 161.803Z" fill="#D8948F"/>
<path d="M147.785 163.922L140.558 163.624" stroke="#1D1D3C" stroke-width="0.5" stroke-miterlimit="10" stroke-linecap="round" stroke-linejoin="round"/>
<path d="M148.138 165.916L140.911 165.617" stroke="#1D1D3C" stroke-width="0.5" stroke-miterlimit="10" stroke-linecap="round" stroke-linejoin="round"/>
<path d="M30.9742 175.426C30.9742 175.426 37.5021 116.608 69.2645 110.97L68.9429 108.171L81.1244 113.91L80.2848 114.891L91.3464 144.542C92.6085 149.94 96.9329 154.073 102.36 155.068L129.369 160.02V171.296C129.369 171.296 92.0259 177.108 83.9128 173.551L84.4226 177.887L30.9742 175.426Z" fill="#0048FD"/>
<path d="M83.9128 173.551C83.9128 173.551 64.036 162.712 67.23 137.546" stroke="white" stroke-width="0.5" stroke-miterlimit="10" stroke-linecap="round" stroke-linejoin="round"/>
<path d="M129.369 160.02L124.607 159.146L124.896 171.944L129.369 171.295V160.02Z" fill="white"/>
<path d="M148.014 66.558C142.105 65.5397 136.493 69.5283 135.48 75.4664C134.467 81.4046 138.436 87.0439 144.345 88.0622L140.789 108.901L161.525 112.473C162.538 106.535 168.15 102.547 174.059 103.565C179.968 104.583 183.937 110.222 182.923 116.161L203.66 119.733L214.439 56.5517L151.569 45.7188L148.014 66.558Z" fill="#0048FD"/>
<path d="M307.337 112.784C307.034 113.741 306.835 114.382 306.627 115.021C304.924 120.26 303.222 125.499 301.514 130.737C301.014 132.268 300.768 132.403 299.288 131.919C293.65 130.073 288.02 128.201 282.373 126.384C281.241 126.019 280.882 125.476 281.27 124.303C283.169 118.563 285.03 112.811 286.879 107.055C287.206 106.038 287.74 105.695 288.783 106.04C294.584 107.962 300.399 109.842 306.192 111.79C306.671 111.95 307.021 112.5 307.337 112.784ZM283.387 124.522C288.844 126.311 294.198 128.067 299.635 129.85C301.427 124.333 303.165 118.982 304.939 113.521C299.471 111.729 294.145 109.984 288.692 108.197C286.909 113.686 285.17 119.035 283.387 124.522Z" fill="#AABBFF"/>
<path d="M107.443 46.167C108.336 46.6177 108.936 46.9149 109.531 47.221C114.413 49.7317 119.296 52.2416 124.175 54.7572C125.602 55.4929 125.696 55.7584 124.988 57.151C122.292 62.4582 119.57 67.7532 116.899 73.0735C116.364 74.1396 115.774 74.4108 114.682 73.8424C109.338 71.0597 103.976 68.3103 98.6087 65.5738C97.6609 65.0907 97.4064 64.5061 97.9089 63.526C100.706 58.0693 103.465 52.5916 106.285 47.1471C106.519 46.6965 107.114 46.4358 107.443 46.167ZM115.229 71.7759C117.842 66.64 120.406 61.5999 123.01 56.4827C117.868 53.8396 112.881 51.277 107.792 48.6615C105.175 53.808 102.626 58.8204 100.016 63.9539C105.131 66.584 110.115 69.1466 115.229 71.7759Z" fill="#AABBFF"/>
<path d="M236.25 176.684C236.051 180.486 235.86 184.29 235.652 188.092C235.573 189.546 234.99 189.876 233.79 189.1C227.418 184.981 221.053 180.848 214.698 176.702C213.575 175.969 213.619 175.25 214.807 174.634C221.539 171.146 228.275 167.666 235.018 164.203C236.289 163.55 236.843 163.941 236.778 165.407C236.613 169.167 236.428 172.925 236.25 176.684ZM216.676 175.758C222.5 179.535 228.071 183.147 233.877 186.911C234.217 179.998 234.545 173.336 234.888 166.384C228.689 169.574 222.8 172.606 216.676 175.758Z" fill="#0048FD"/>
<path d="M48.1345 64.4305C51.7616 65.534 55.3904 66.6302 59.0142 67.7419C60.4 68.1674 60.5801 68.8137 59.5435 69.7995C54.0394 75.0328 48.524 80.2548 42.9981 85.4646C42.0212 86.3854 41.3368 86.171 41.0265 84.8637C39.2667 77.4607 37.5158 70.0561 35.7826 62.6466C35.4562 61.2499 35.9668 60.8033 37.3671 61.2166C40.9587 62.2779 44.5454 63.3579 48.1345 64.4305ZM42.5585 83.3087C47.6004 78.5285 52.4226 73.9561 57.4483 69.1913C50.8502 67.206 44.492 65.2929 37.8568 63.2962C39.4566 70.1072 40.9772 76.5797 42.5585 83.3087Z" fill="#0048FD"/>
<path d="M200.632 31.7199C201.048 32.4483 201.802 33.8214 202.608 35.1636C203.915 37.343 205.828 37.3836 207.227 35.2424C207.985 34.0828 208.589 32.8202 209.362 31.672C212.18 27.4886 217.449 27.6242 220.051 31.9319C220.676 32.9663 221.205 34.0585 221.828 35.0938C223.266 37.4819 225.206 37.5062 226.698 35.149C227.44 33.9773 228.05 32.7195 228.827 31.5738C229.961 29.8994 231.513 28.8454 233.6 28.7439C234.365 28.7066 235.071 28.9591 234.965 29.7874C234.912 30.2064 234.229 30.8154 233.78 30.8641C232.197 31.0378 231.142 31.8645 230.354 33.1539C229.584 34.4133 228.912 35.7418 228.052 36.9346C225.986 39.8001 222.643 39.8229 220.548 36.9728C219.705 35.8262 219.09 34.5108 218.363 33.2773C216.433 29.9993 213.03 29.927 210.979 33.1352C210.208 34.3411 209.583 35.6468 208.753 36.8063C206.597 39.8172 203.003 39.7189 201.007 36.6212C200.207 35.3812 199.529 34.0634 198.751 32.8088C198.005 31.6054 196.971 30.8194 195.491 30.7488C194.722 30.7122 194.069 30.3192 194.319 29.517C194.446 29.1061 195.21 28.6368 195.684 28.6384C197.597 28.6465 199.077 29.6006 200.632 31.7199Z" fill="#501D38"/>
<path d="M90.8284 280.079C91.2454 280.807 91.9992 282.181 92.8048 283.523C94.1121 285.702 96.0247 285.743 97.4241 283.602C98.182 282.442 98.7856 281.179 99.5589 280.031C102.376 275.848 107.646 275.983 110.248 280.291C110.872 281.325 111.402 282.418 112.025 283.453C113.463 285.841 115.403 285.865 116.895 283.508C117.637 282.336 118.247 281.079 119.024 279.932C120.158 278.258 121.709 277.204 123.796 277.102C124.562 277.065 125.268 277.317 125.162 278.146C125.109 278.565 124.426 279.174 123.977 279.223C122.394 279.396 121.339 280.224 120.551 281.513C119.781 282.772 119.109 284.101 118.25 285.294C116.183 288.159 112.841 288.182 110.746 285.332C109.903 284.185 109.287 282.871 108.561 281.637C106.63 278.358 103.226 278.286 101.176 281.494C100.406 282.7 99.7811 284.006 98.9504 285.165C96.7947 288.176 93.2007 288.078 91.2041 284.98C90.405 283.74 89.7263 282.423 88.949 281.168C88.2032 279.965 87.1698 279.179 85.6896 279.108C84.9203 279.071 84.2675 278.678 84.5171 277.876C84.6448 277.465 85.4084 276.995 85.8827 276.998C87.7936 277.005 89.2738 277.959 90.8284 280.079Z" fill="#FFB127"/>
<path d="M128.568 117.241C133.252 120.092 137.546 122.707 142.078 125.466C137.457 128.019 133.038 130.46 128.568 132.929C128.568 127.736 128.568 122.697 128.568 117.241Z" fill="#AABBFF"/>
<path d="M227.389 136.136C228.523 136.136 229.442 135.212 229.442 134.072C229.442 132.932 228.523 132.008 227.389 132.008C226.254 132.008 225.335 132.932 225.335 134.072C225.335 135.212 226.254 136.136 227.389 136.136Z" fill="#FFB127"/>
<path d="M82.9545 48.3489C82.9545 47.2088 83.874 46.2848 85.0084 46.2848C86.1428 46.2848 87.0623 47.2088 87.0623 48.3489C87.0623 49.4889 86.1428 50.413 85.0084 50.413C83.874 50.413 82.9545 49.4889 82.9545 48.3489Z" fill="#FFB127"/>
<path d="M127.315 223.29C127.315 222.15 128.235 221.226 129.369 221.226C130.504 221.226 131.423 222.15 131.423 223.29C131.423 224.43 130.504 225.354 129.369 225.354C128.235 225.355 127.315 224.43 127.315 223.29Z" fill="#FFB127"/>
<path d="M118.902 24.6003C118.902 23.4603 119.821 22.5362 120.956 22.5362C122.09 22.5362 123.009 23.4603 123.009 24.6003C123.009 25.7404 122.09 26.6644 120.956 26.6644C119.821 26.6644 118.902 25.7404 118.902 24.6003Z" fill="#FFB127"/>
<path d="M223.504 233.059C224.385 233.059 225.099 232.342 225.099 231.457C225.099 230.573 224.385 229.855 223.504 229.855C222.624 229.855 221.91 230.573 221.91 231.457C221.91 232.342 222.624 233.059 223.504 233.059Z" fill="#FFB127"/>
<path d="M255.265 161.21C256.399 161.21 257.318 160.286 257.318 159.146C257.318 158.006 256.399 157.082 255.265 157.082C254.13 157.082 253.211 158.006 253.211 159.146C253.211 160.286 254.13 161.21 255.265 161.21Z" fill="#FFB127"/>
<path d="M12.4815 191.32C12.4815 190.18 13.401 189.256 14.5355 189.256C15.6699 189.256 16.5894 190.18 16.5894 191.32C16.5894 192.46 15.6699 193.384 14.5355 193.384C13.401 193.384 12.4815 192.46 12.4815 191.32Z" fill="#FFB127"/>
<path d="M345.09 151.677C345.09 150.537 346.009 149.613 347.144 149.613C348.278 149.613 349.198 150.537 349.198 151.677C349.198 152.818 348.278 153.742 347.144 153.742C346.01 153.742 345.09 152.818 345.09 151.677Z" fill="#FFB127"/>
<path d="M21.296 135.104C21.8632 135.104 22.323 134.642 22.323 134.072C22.323 133.502 21.8632 133.04 21.296 133.04C20.7288 133.04 20.269 133.502 20.269 134.072C20.269 134.642 20.7288 135.104 21.296 135.104Z" fill="#FFB127"/>
<path d="M354.401 177.735C354.968 177.735 355.428 177.273 355.428 176.703C355.428 176.133 354.968 175.671 354.401 175.671C353.834 175.671 353.374 176.133 353.374 176.703C353.374 177.273 353.834 177.735 354.401 177.735Z" fill="#FFB127"/>
<path d="M214.655 151.678C215.79 151.678 216.709 150.753 216.709 149.613C216.709 148.473 215.79 147.549 214.655 147.549C213.521 147.549 212.601 148.473 212.601 149.613C212.601 150.753 213.521 151.678 214.655 151.678Z" fill="#FFB127"/>
<path d="M52.0363 276.976C52.0363 276.406 52.4961 275.944 53.0633 275.944C53.6305 275.944 54.0903 276.406 54.0903 276.976C54.0903 277.546 53.6305 278.008 53.0633 278.008C52.4961 278.008 52.0363 277.546 52.0363 276.976Z" fill="#FFB127"/>
<path d="M109.484 136.136C109.484 134.996 110.403 134.072 111.537 134.072C112.672 134.072 113.591 134.996 113.591 136.136C113.591 137.276 112.672 138.2 111.537 138.2C110.403 138.2 109.484 137.276 109.484 136.136Z" fill="#FFB127"/>
<path d="M69.5829 19.2322C70.1501 19.2322 70.6098 18.7701 70.6098 18.2001C70.6098 17.6301 70.1501 17.1681 69.5829 17.1681C69.0157 17.1681 68.5559 17.6301 68.5559 18.2001C68.5559 18.7701 69.0157 19.2322 69.5829 19.2322Z" fill="#FFB127"/>
<path d="M171.208 36.3475C172.343 36.3475 173.262 35.4234 173.262 34.2834C173.262 33.1434 172.343 32.2193 171.208 32.2193C170.074 32.2193 169.154 33.1434 169.154 34.2834C169.154 35.4234 170.074 36.3475 171.208 36.3475Z" fill="#FFB127"/>
<path d="M194.267 44.6949C194.834 44.6949 195.294 44.2328 195.294 43.6628C195.294 43.0928 194.834 42.6308 194.267 42.6308C193.7 42.6308 193.24 43.0928 193.24 43.6628C193.24 44.2328 193.7 44.6949 194.267 44.6949Z" fill="#FFB127"/>
<path d="M233.718 51.6261C233.718 49.9242 235.09 48.5446 236.784 48.5446C238.478 48.5446 239.85 49.9242 239.85 51.6261C239.85 53.3281 238.478 54.7076 236.784 54.7076C235.09 54.7076 233.718 53.3281 233.718 51.6261Z" fill="#FFB127"/>
<path d="M250.639 128.166C252.332 128.166 253.705 126.786 253.705 125.085C253.705 123.383 252.332 122.003 250.639 122.003C248.945 122.003 247.572 123.383 247.572 125.085C247.572 126.786 248.945 128.166 250.639 128.166Z" fill="#FFB127"/>
<path d="M220.438 192.543C220.438 190.841 221.811 189.461 223.504 189.461C225.198 189.461 226.571 190.841 226.571 192.543C226.571 194.245 225.198 195.625 223.504 195.625C221.811 195.624 220.438 194.244 220.438 192.543Z" fill="#FFB127"/>
</svg>
